<svg width="26" height="26" viewBox="0 0 26 26" fill="none" xmlns="http://www.w3.org/2000/svg">
<path d="M9 25V17C9 16.2928 9.28095 15.6145 9.78105 15.1144C10.2811 14.6143 10.9594 14.3333 11.6667 14.3333H14.3333C15.0406 14.3333 15.7189 14.6143 16.219 15.1144C16.719 15.6145 17 16.2928 17 17V25M3.66667 13H1L13 1L25 13H22.3333V22.3333C22.3333 23.0406 22.0524 23.7189 21.5523 24.219C21.0522 24.719 20.3739 25 19.6667 25H6.33333C5.62609 25 4.94781 24.719 4.44772 24.219C3.94762 23.7189 3.66667 23.0406 3.66667 22.3333V13Z" stroke="white" stroke-width="2" stroke-linecap="round" stroke-linejoin="round"/>
</svg>
