<svg width="34" height="34" viewBox="0 0 34 34" fill="none" xmlns="http://www.w3.org/2000/svg">
<path d="M11.3334 15.5833V22.6666M11.3334 11.3333V11.3475M17 22.6666V15.5833M22.6667 22.6666V18.4166C22.6667 17.6652 22.3682 16.9445 21.8368 16.4132C21.3055 15.8818 20.5848 15.5833 19.8334 15.5833C19.0819 15.5833 18.3612 15.8818 17.8299 16.4132C17.2985 16.9445 17 17.6652 17 18.4166M8.50002 5.66663H25.5C27.0648 5.66663 28.3334 6.93515 28.3334 8.49996V25.5C28.3334 27.0648 27.0648 28.3333 25.5 28.3333H8.50002C6.93521 28.3333 5.66669 27.0648 5.66669 25.5V8.49996C5.66669 6.93515 6.93521 5.66663 8.50002 5.66663Z" stroke="white" stroke-width="2" stroke-linecap="round" stroke-linejoin="round"/>
</svg>
