<svg width="34" height="34" viewBox="0 0 34 34" fill="none" xmlns="http://www.w3.org/2000/svg">
<path d="M31.1666 5.68085C29.75 6.37502 28.3616 6.65694 26.9166 7.08335C25.3286 5.29127 22.9741 5.1921 20.7116 6.03927C18.4492 6.88644 16.9674 8.9576 17 11.3334V12.75C12.4029 12.8676 8.30873 10.7738 5.66665 7.08335C5.66665 7.08335 -0.257854 17.6134 11.3333 22.6667C8.68131 24.4333 6.0364 25.6247 2.83331 25.5C7.51965 28.0543 12.6267 28.9326 17.0481 27.6491C22.1198 26.1758 26.2876 22.3749 27.8871 16.6813C28.3642 14.9496 28.6011 13.1607 28.5911 11.3645C28.5883 11.0118 30.7303 7.43752 31.1666 5.67944V5.68085Z" stroke="#FAFAFA" stroke-width="2" stroke-linecap="round" stroke-linejoin="round"/>
</svg>
